#!OML:ASF F:\VICON\USERDATA\INSTALL\rory3\rory3.ASF
:FULLY-SPECIFIED
:DEGREES
2272
root -1.94475 18.1112 1.78645 -366.436 156.083 -5.00951
lowerback 4.60733 9.70662 2.04515
upperback 4.56819 13.5284 7.19253
thorax 0.921653 6.97509 5.7002
lowerneck -9.95936 8.18394 0.0689216
upperneck 32.1056 8.50026 4.18974
head 11.9556 3.55909 2.48187
rclavicle 4.06763e-014 3.18055e-014
rhumerus 418.056 49.9174 -396.246
rradius 66.9297
rwrist 39.9785
rhand -34.9333 -0.515968
rfingers 7.12502
rthumb -8.08038 -30.3415
lclavicle 4.06763e-014 3.18055e-014
lhumerus 2.32722 24.5069 36.672
lradius 78.9993
lwrist -41.9992
lhand -46.9715 72.2571
lfingers 7.12502
lthumb -19.6798 -101.281
rfemur 3.29783 7.30048 10.933
rtibia 32.9619
rfoot -31.1283 -29.8078
rtoes -8.23042
lfemur -17.0265 -15.0613 -14.8866
ltibia 26.8913
lfoot -4.51637 -2.60325
ltoes -5.01482
2273
root -1.93548 18.1092 1.81531 -366.528 155.881 -5.21431
lowerback 4.58424 9.74967 1.98502
upperback 4.55553 13.5846 7.2399
thorax 0.891326 7.00255 5.77681
lowerneck -9.80772 8.21422 0.0847237
upperneck 32.5636 8.45742 4.16121
head 12.1135 3.49476 2.46808
rclavicle -7.16122e-014 3.49861e-014
rhumerus 418.359 49.8824 -395.582
rradius 66.7275
rwrist 40.1386
rhand -35.4964 0.127718
rfingers 7.12502
rthumb -8.62388 -29.6761
lclavicle -7.16122e-014 3.49861e-014
lhumerus 2.39868 25.2292 36.2512
lradius 78.0688
lwrist -41.9508
lhand -46.8436 72.1393
lfingers 7.12502
lthumb -19.557 -101.176
rfemur 3.20934 7.41706 10.7938
rtibia 32.945
rfoot -31.3494 -29.6931
rtoes -7.8635
lfemur -16.9033 -15.08 -14.9683
ltibia 26.6314
lfoot -4.45847 -2.32058
ltoes -4.7167
2274
root -1.92297 18.1076 1.84774 -366.655 155.709 -5.50685
lowerback 4.51809 9.7643 1.78542
upperback 4.61381 13.5972 7.31044
thorax 0.92515 7.0068 5.96707
lowerneck -9.73362 8.27472 -0.0687581
upperneck 32.9472 8.49587 4.21148
head 12.2407 3.46581 2.52318
rclavicle -8.88567e-014 1.59028e-014
rhumerus 418.992 49.8864 -394.749
rradius 66.374
rwrist 40.3246
rhand -36.8004 3.83878
rfingers 7.12502
rthumb -9.8821 -25.9093
lclavicle -8.88567e-014 1.59028e-014
lhumerus 2.43534 25.8899 35.8173
lradius 77.0488
lwrist -41.6685
lhand -46.9207 72.098
lfingers 7.12502
lthumb -19.631 -101.127
rfemur 3.10616 7.53848 10.5515
rtibia 32.9587
rfoot -31.7707 -29.3618
rtoes -6.9376
lfemur -16.7752 -14.9722 -15.1377
ltibia 26.3364
lfoot -4.31169 -2.18679
ltoes -4.63388
2275
root -1.91051 18.1045 1.88843 -366.744 155.612 -5.74835
lowerback 4.44636 9.74918 1.60497
upperback 4.69136 13.5737 7.39434
thorax 0.986545 6.99435 6.1678
lowerneck -9.69096 8.32582 -0.185937
upperneck 33.273 8.52732 4.25227
head 12.3547 3.44257 2.56845
rclavicle -1.29409e-013 9.22361e-014
rhumerus 419.706 49.8671 -393.867
rradius 66.0087
rwrist 40.5203
rhand -36.771 0.926193
rfingers 7.12502
rthumb -9.85372 -28.8232
lclavicle -1.29409e-013 9.22361e-014
lhumerus 2.54601 26.4155 35.3348
lradius 75.8662
lwrist -41.1146
lhand -47.0977 72.4099
lfingers 7.12502
lthumb -19.8012 -101.421
rfemur 2.94408 7.75209 10.4283
rtibia 33.0034
rfoot -32.0289 -29.3436
rtoes -6.38753
lfemur -16.7094 -14.8599 -15.2364
ltibia 25.9969
lfoot -4.04721 -2.11821
ltoes -4.64912
2276
root -1.89614 18.1033 1.92875 -366.792 155.464 -5.90902
lowerback 4.35644 9.77296 1.52357
upperback 4.71352 13.6054 7.47946
thorax 1.01689 7.01091 6.31313
lowerneck -9.51734 8.3402 -0.217371
upperneck 33.6265 8.48223 4.2248
head 12.466 3.3774 2.55777
rclavicle 1.87355e-013 -9.54166e-014
rhumerus 420.146 49.8791 -393.232
rradius 65.6459
rwrist 40.785
rhand -37.8096 4.75566
rfingers 7.12502
rthumb -10.8557 -24.9438
lclavicle 1.87355e-013 -9.54166e-014
lhumerus 2.73069 26.6892 34.8241
lradius 74.5456
lwrist -40.5693
lhand -47.0032 72.6338
lfingers 7.12502
lthumb -19.7103 -101.655
rfemur 2.73835 7.95424 10.401
rtibia 33.071
rfoot -31.9644 -29.5266
rtoes -6.70774
lfemur -16.6439 -14.7834 -15.2249
ltibia 25.6585
lfoot -3.85507 -1.96084
ltoes -4.4621
